<?xml version="1.0" encoding="UTF-8" standalone="no"?> <!-- Created with Vectornator for iOS (http://vectornator.io/) --><!DOCTYPE svg PUBLIC "-//W3C//DTD SVG 1.1//EN" "http://www.w3.org/Graphics/SVG/1.1/DTD/svg11.dtd">
<svg height="100%" style="fill-rule:evenodd;clip-rule:evenodd;stroke-linecap:round;stroke-linejoin:round;" xmlns:xlink="http://www.w3.org/1999/xlink" xmlns="http://www.w3.org/2000/svg" xml:space="preserve" width="100%" xmlns:vectornator="http://vectornator.io" version="1.1" viewBox="0 0 400 400">
<metadata>
<vectornator:setting key="DynamicGuides" value="1"/>
<vectornator:setting key="CMYKEnabledKey" value="0"/>
<vectornator:setting key="Units" value="Points"/>
<vectornator:setting key="GridSpacing" value="36"/>
<vectornator:setting key="SnapToGuides" value="1"/>
<vectornator:setting key="RulersVisible" value="1"/>
</metadata>
<defs/>
<g id="Layer 1" vectornator:layerName="Layer 1">
<g opacity="1">
<path d="M206.807+193.426L127.081+193.426L127.081+173.872L206.807+173.872L206.807+193.426ZM206.807+226.97L127.081+226.97L127.081+207.416L206.807+207.416L206.807+226.97Z" opacity="1" fill="#3a89d5"/>
<path d="M236.853+147.006L284.943+200.421L236.853+253.837L220.399+239.688L226.202+233.408C227.315+232.084+228.414+230.918+229.501+229.911C230.587+228.904+231.898+227.924+233.435+226.97L203.627+226.97L203.627+207.416L249.968+207.416L250.048+207.337L256.486+200.421L250.048+193.506L249.968+193.426L203.627+193.426L203.627+173.872L233.435+173.872C231.898+172.919+230.587+171.938+229.501+170.931C228.414+169.925+227.315+168.759+226.202+167.434L220.399+161.155L236.853+147.006Z" opacity="1" fill="#3a89d5"/>
</g>
<g opacity="1">
<path d="M89.1388+269.556L82.026+240.423L42.467+240.423L35.3542+269.556L1.9337+269.556L43.2465+134.51L82.026+134.51L123.339+269.556L89.1388+269.556ZM62.1491+157.505L47.5337+217.233L76.7645+217.233L62.1491+157.505Z" opacity="1" fill="#d53a3a"/>
</g>
<g opacity="1">
<path d="M394.919+228.709C394.919+243.129+389.82+253.328+379.621+259.304C369.423+265.28+356.009+268.268+339.38+268.268L294.56+268.268L294.56+133.222L337.334+133.222C352.794+133.222+365.282+135.901+374.798+141.26C384.314+146.619+389.073+155.437+389.073+167.714C389.073+175.379+386.734+181.68+382.057+186.617C377.38+191.553+371.469+194.931+364.324+196.75C372.963+198.179+380.222+201.394+386.101+206.396C391.979+211.398+394.919+218.835+394.919+228.709ZM356.919+170.929C356.919+165.668+355.262+161.835+351.949+159.432C348.637+157.029+343.44+155.827+336.36+155.827L326.519+155.827L326.519+187.104L337.334+187.104C344.22+187.104+349.205+185.837+352.29+183.304C355.376+180.77+356.919+176.646+356.919+170.929ZM361.985+227.442C361.985+220.687+360.053+215.847+356.188+212.924C352.323+210.001+346.818+208.54+339.673+208.54L326.519+208.54L326.519+244.981L338.308+244.981C345.584+244.981+351.349+243.746+355.603+241.278C359.858+238.81+361.985+234.198+361.985+227.442Z" opacity="1" fill="#3ad56e"/>
</g>
</g>
</svg>
