<?xml version="1.0" encoding="UTF-8" standalone="no"?> <!-- Created with Vectornator for iOS (http://vectornator.io/) --><!DOCTYPE svg PUBLIC "-//W3C//DTD SVG 1.1//EN" "http://www.w3.org/Graphics/SVG/1.1/DTD/svg11.dtd">
<svg style="fill-rule:evenodd;clip-rule:evenodd;stroke-linecap:round;stroke-linejoin:round;" xmlns:vectornator="http://vectornator.io" xmlns:xlink="http://www.w3.org/1999/xlink" xmlns="http://www.w3.org/2000/svg" xml:space="preserve" version="1.1" viewBox="0 0 400 400">
<metadata>
<vectornator:setting key="DisplayWhiteBackground" value="0"/>
<vectornator:setting key="RulersVisible" value="1"/>
<vectornator:setting key="SnapToEdges" value="0"/>
<vectornator:setting key="Units" value="Pixels"/>
<vectornator:setting key="New" value="1"/>
<vectornator:setting key="DynamicGuides" value="0"/>
<vectornator:setting key="SnapToPoints" value="0"/>
<vectornator:setting key="SnapToGrid" value="0"/>
<vectornator:setting key="SnapToGuides" value="1"/>
<vectornator:setting key="GridSpacing" value="36"/>
</metadata>
<defs/>
<g id="Layer 1" vectornator:layerName="Layer 1">
<g opacity="1">
<path d="M95.8444+172.707L52.1739+172.707L52.1739+201.953L90.9035+201.953L90.9035+220.68L52.1739+220.68L52.1739+264.51L25.9557+264.51L25.9557+154.059L98.5538+154.059L95.8444+172.707Z" opacity="1" fill="#2a68c9"/>
<path d="M178.324+284.114L129.235+284.114L129.235+133.339L178.324+133.339L178.324+152.146L152.983+152.146L152.983+265.466L178.324+265.466L178.324+284.114Z" opacity="1" fill="#2a68c9"/>
<path d="M287.66+294.155L207.969+294.155L207.969+274.392L287.66+274.392L287.66+294.155Z" opacity="1" fill="#2a68c9"/>
<path d="M317.305+133.339L366.394+133.339L366.394+284.114L317.305+284.114L317.305+265.307L342.646+265.307L342.646+152.146L317.305+152.146L317.305+133.339Z" opacity="1" fill="#2a68c9"/>
</g>
<path d="M354.221+232.177" opacity="1" fill="#2a68c9"/>
</g>
</svg>
